<svg width="1728" height="1196" xmlns="http://www.w3.org/2000/svg" xmlns:xlink="http://www.w3.org/1999/xlink" xml:space="preserve" overflow="hidden"><g transform="translate(-2135 -925)"><path d="M3008.79 1112.5 3008.79 1341.2 3004.21 1341.2 3004.21 1112.5ZM3020.25 1336.62 3006.5 1364.12 2992.75 1336.62Z"/><path d="M2137.5 1685.44C2137.5 1676.08 2145.08 1668.5 2154.44 1668.5L2614.56 1668.5C2623.92 1668.5 2631.5 1676.08 2631.5 1685.44L2631.5 1835.56C2631.5 1844.92 2623.92 1852.5 2614.56 1852.5L2154.44 1852.5C2145.08 1852.5 2137.5 1844.92 2137.5 1835.56Z" stroke="#000000" stroke-width="4.58333" stroke-miterlimit="8" fill="#E2F0D9" fill-rule="evenodd"/><text font-family="Calibri,Calibri_MSFontService,sans-serif" font-weight="400" font-size="46" transform="matrix(1 0 0 1 2229.6 1775)">adoptedCallback</text><path d="M3366.5 1686.96C3366.5 1676.77 3374.77 1668.5 3384.96 1668.5L3842.04 1668.5C3852.23 1668.5 3860.5 1676.77 3860.5 1686.96L3860.5 1834.04C3860.5 1844.23 3852.23 1852.5 3842.04 1852.5L3384.96 1852.5C3374.77 1852.5 3366.5 1844.23 3366.5 1834.04Z" stroke="#000000" stroke-width="4.58333" stroke-miterlimit="8" fill="#E2F0D9" fill-rule="evenodd"/><text font-family="Calibri,Calibri_MSFontService,sans-serif" font-weight="400" font-size="46" transform="matrix(1 0 0 1 3448.43 1748)">attributeChanged</text><text font-family="Calibri,Calibri_MSFontService,sans-serif" font-weight="400" font-size="46" transform="matrix(1 0 0 1 3536.37 1803)">Callback</text><path d="M2759.5 1949.91C2759.5 1941.4 2766.4 1934.5 2774.91 1934.5L3238.09 1934.5C3246.6 1934.5 3253.5 1941.4 3253.5 1949.91L3253.5 2103.09C3253.5 2111.6 3246.6 2118.5 3238.09 2118.5L2774.91 2118.5C2766.4 2118.5 2759.5 2111.6 2759.5 2103.09Z" stroke="#000000" stroke-width="4.58333" stroke-miterlimit="8" fill="#E2F0D9" fill-rule="evenodd"/><text font-family="Calibri,Calibri_MSFontService,sans-serif" font-weight="400" font-size="46" transform="matrix(1 0 0 1 2881.39 2014)">disconnected  </text><text font-family="Calibri,Calibri_MSFontService,sans-serif" font-weight="400" font-size="46" transform="matrix(1 0 0 1 2929.24 2069)">Callback</text><path d="M3253.5 1453.21 3615.8 1453.21 3615.8 1644.89 3611.21 1644.89 3611.21 1455.5 3613.5 1457.79 3253.5 1457.79ZM3627.25 1640.3 3613.5 1667.8 3599.75 1640.3Z"/><path d="M0-2.29167 376.577-2.29167 376.577 189.387 371.994 189.387 371.994 0 374.286 2.29167 0 2.29167ZM388.036 184.804 374.286 212.304 360.536 184.804Z" transform="matrix(-1 1.22465e-16 1.22465e-16 1 2758.79 1455.5)"/><path d="M3615.8 1852.5 3615.8 2028.62 3276.42 2028.62 3276.42 2024.04 3613.51 2024.04 3611.21 2026.33 3611.21 1852.5ZM3281 2040.08 3253.5 2026.33 3281 2012.58Z"/><path d="M0-2.29167 176.122-2.29167 176.122 351.369 171.539 351.369 171.539 0 173.831 2.29167 0 2.29167ZM187.581 346.786 173.831 374.286 160.081 346.786Z" transform="matrix(1.83697e-16 1 1 -1.83697e-16 2384.5 1852.5)"/><path d="M2759.5 944.531C2759.5 935.125 2767.13 927.5 2776.53 927.5L3236.47 927.5C3245.88 927.5 3253.5 935.125 3253.5 944.531L3253.5 1095.47C3253.5 1104.87 3245.88 1112.5 3236.47 1112.5L2776.53 1112.5C2767.13 1112.5 2759.5 1104.87 2759.5 1095.47Z" stroke="#000000" stroke-width="4.58333" stroke-miterlimit="8" fill="#E2F0D9" fill-rule="evenodd"/><text font-family="Calibri,Calibri_MSFontService,sans-serif" font-weight="400" font-size="46" transform="matrix(1 0 0 1 2897.72 1035)">constructor</text><path d="M2759.5 1380.53C2759.5 1371.13 2767.13 1363.5 2776.53 1363.5L3236.47 1363.5C3245.88 1363.5 3253.5 1371.13 3253.5 1380.53L3253.5 1531.47C3253.5 1540.87 3245.88 1548.5 3236.47 1548.5L2776.53 1548.5C2767.13 1548.5 2759.5 1540.87 2759.5 1531.47Z" stroke="#000000" stroke-width="4.58333" stroke-miterlimit="8" fill="#E2F0D9" fill-rule="evenodd"/><text font-family="Calibri,Calibri_MSFontService,sans-serif" font-weight="400" font-size="46" transform="matrix(1 0 0 1 2830.97 1471)">connectedCallback</text></g></svg>