<svg width="1728" height="1930" xmlns="http://www.w3.org/2000/svg" xmlns:xlink="http://www.w3.org/1999/xlink" xml:space="preserve" overflow="hidden"><g transform="translate(-2135 -191)"><path d="M2559.5 211.507C2559.5 201.562 2567.56 193.5 2577.51 193.5L3435.49 193.5C3445.44 193.5 3453.5 201.562 3453.5 211.507L3453.5 561.493C3453.5 571.438 3445.44 579.5 3435.49 579.5L2577.51 579.5C2567.56 579.5 2559.5 571.438 2559.5 561.493Z" stroke="#000000" stroke-width="4.58333" stroke-miterlimit="8" fill="#E2F0D9" fill-rule="evenodd"/><text font-family="Calibri,Calibri_MSFontService,sans-serif" font-weight="400" font-size="46" transform="matrix(1 0 0 1 2596.86 257)">c</text><text font-family="Calibri,Calibri_MSFontService,sans-serif" font-weight="400" font-size="46" transform="matrix(1 0 0 1 2616.34 257)">onstructor</text><path d="M2559.5 692.205C2559.5 680.77 2568.77 671.5 2580.21 671.5L3432.8 671.5C3444.23 671.5 3453.5 680.77 3453.5 692.205L3453.5 1582.8C3453.5 1594.23 3444.23 1603.5 3432.8 1603.5L2580.21 1603.5C2568.77 1603.5 2559.5 1594.23 2559.5 1582.8Z" stroke="#000000" stroke-width="4.58333" stroke-miterlimit="8" fill="#E2F0D9" fill-rule="evenodd"/><text font-family="Calibri,Calibri_MSFontService,sans-serif" font-weight="400" font-size="46" transform="matrix(1 0 0 1 2597.65 737)">connected Callback</text><path d="M3008.79 579.5 3008.79 648.726 3004.21 648.726 3004.21 579.5ZM3020.25 644.142 3006.5 671.642 2992.75 644.142Z"/><path d="M2137.5 1685.44C2137.5 1676.08 2145.08 1668.5 2154.44 1668.5L2614.56 1668.5C2623.92 1668.5 2631.5 1676.08 2631.5 1685.44L2631.5 1835.56C2631.5 1844.92 2623.92 1852.5 2614.56 1852.5L2154.44 1852.5C2145.08 1852.5 2137.5 1844.92 2137.5 1835.56Z" stroke="#000000" stroke-width="4.58333" stroke-miterlimit="8" fill="#E2F0D9" fill-rule="evenodd"/><text font-family="Calibri,Calibri_MSFontService,sans-serif" font-weight="400" font-size="46" transform="matrix(1 0 0 1 2229.6 1775)">adoptedCallback</text><path d="M3366.5 1686.96C3366.5 1676.77 3374.77 1668.5 3384.96 1668.5L3842.04 1668.5C3852.23 1668.5 3860.5 1676.77 3860.5 1686.96L3860.5 1834.04C3860.5 1844.23 3852.23 1852.5 3842.04 1852.5L3384.96 1852.5C3374.77 1852.5 3366.5 1844.23 3366.5 1834.04Z" stroke="#000000" stroke-width="4.58333" stroke-miterlimit="8" fill="#E2F0D9" fill-rule="evenodd"/><text font-family="Calibri,Calibri_MSFontService,sans-serif" font-weight="400" font-size="46" transform="matrix(1 0 0 1 3448.43 1748)">attributeChanged</text><text font-family="Calibri,Calibri_MSFontService,sans-serif" font-weight="400" font-size="46" transform="matrix(1 0 0 1 3536.37 1803)">Callback</text><path d="M2759.5 1949.91C2759.5 1941.4 2766.4 1934.5 2774.91 1934.5L3238.09 1934.5C3246.6 1934.5 3253.5 1941.4 3253.5 1949.91L3253.5 2103.09C3253.5 2111.6 3246.6 2118.5 3238.09 2118.5L2774.91 2118.5C2766.4 2118.5 2759.5 2111.6 2759.5 2103.09Z" stroke="#000000" stroke-width="4.58333" stroke-miterlimit="8" fill="#E2F0D9" fill-rule="evenodd"/><text font-family="Calibri,Calibri_MSFontService,sans-serif" font-weight="400" font-size="46" transform="matrix(1 0 0 1 2881.39 2014)">disconnected  </text><text font-family="Calibri,Calibri_MSFontService,sans-serif" font-weight="400" font-size="46" transform="matrix(1 0 0 1 2929.24 2069)">Callback</text><path d="M3453.5 1135.21 3615.81 1135.21 3615.81 1645.4 3611.22 1645.4 3611.22 1137.5 3613.51 1139.79 3453.5 1139.79ZM3627.26 1640.81 3613.51 1668.31 3599.76 1640.81Z"/><path d="M0-2.29167 176.587-2.29167 176.587 507.896 172.004 507.896 172.004 0 174.296 2.29167 0 2.29167ZM188.046 503.312 174.296 530.812 160.546 503.312Z" transform="matrix(-1 1.22465e-16 1.22465e-16 1 2558.8 1137.5)"/><path d="M3615.8 1852.5 3615.8 2028.62 3276.42 2028.62 3276.42 2024.04 3613.51 2024.04 3611.21 2026.33 3611.21 1852.5ZM3281 2040.08 3253.5 2026.33 3281 2012.58Z"/><path d="M0-2.29167 176.122-2.29167 176.122 351.369 171.539 351.369 171.539 0 173.831 2.29167 0 2.29167ZM187.581 346.786 173.831 374.286 160.081 346.786Z" transform="matrix(1.83697e-16 1 1 -1.83697e-16 2384.5 1852.5)"/><path d="M2759.5 337.167C2759.5 320.23 2773.23 306.5 2790.17 306.5L3222.83 306.5C3239.77 306.5 3253.5 320.23 3253.5 337.167L3253.5 459.833C3253.5 476.77 3239.77 490.5 3222.83 490.5L2790.17 490.5C2773.23 490.5 2759.5 476.77 2759.5 459.833Z" stroke="#000000" stroke-width="4.58333" stroke-miterlimit="8" fill="#FFFFFF" fill-rule="evenodd"/><text font-family="Calibri,Calibri_MSFontService,sans-serif" font-weight="400" font-size="46" transform="matrix(1 0 0 1 2903.45 414)">p</text><text font-family="Calibri,Calibri_MSFontService,sans-serif" font-weight="400" font-size="46" transform="matrix(1 0 0 1 2927.51 414)">reProcess</text><path d="M2759.5 846.334C2759.5 829.305 2773.31 815.5 2790.33 815.5L3222.67 815.5C3239.7 815.5 3253.5 829.305 3253.5 846.334L3253.5 969.666C3253.5 986.695 3239.7 1000.5 3222.67 1000.5L2790.33 1000.5C2773.31 1000.5 2759.5 986.695 2759.5 969.666Z" stroke="#000000" stroke-width="4.58333" stroke-miterlimit="8" fill="#FFFFFF" fill-rule="evenodd"/><text font-family="Calibri,Calibri_MSFontService,sans-serif" font-weight="400" font-size="46" transform="matrix(1 0 0 1 2915.19 923)">to</text><text font-family="Calibri,Calibri_MSFontService,sans-serif" font-weight="400" font-size="46" transform="matrix(1 0 0 1 2954.72 923)">P</text><text font-family="Calibri,Calibri_MSFontService,sans-serif" font-weight="400" font-size="46" transform="matrix(1 0 0 1 2978.21 923)">rocess</text><path d="M2759.5 1104.17C2759.5 1087.23 2773.23 1073.5 2790.17 1073.5L3222.83 1073.5C3239.77 1073.5 3253.5 1087.23 3253.5 1104.17L3253.5 1226.83C3253.5 1243.77 3239.77 1257.5 3222.83 1257.5L2790.17 1257.5C2773.23 1257.5 2759.5 1243.77 2759.5 1226.83Z" stroke="#000000" stroke-width="4.58333" stroke-miterlimit="8" fill="#FFFFFF" fill-rule="evenodd"/><text font-family="Calibri,Calibri_MSFontService,sans-serif" font-weight="400" font-size="46" transform="matrix(1 0 0 1 2916.34 1181)">atProcess</text><path d="M2759.5 1361.17C2759.5 1344.23 2773.23 1330.5 2790.17 1330.5L3222.83 1330.5C3239.77 1330.5 3253.5 1344.23 3253.5 1361.17L3253.5 1483.83C3253.5 1500.77 3239.77 1514.5 3222.83 1514.5L2790.17 1514.5C2773.23 1514.5 2759.5 1500.77 2759.5 1483.83Z" stroke="#000000" stroke-width="4.58333" stroke-miterlimit="8" fill="#FFFFFF" fill-rule="evenodd"/><text font-family="Calibri,Calibri_MSFontService,sans-serif" font-weight="400" font-size="46" transform="matrix(1 0 0 1 2917.77 1437)">inProcess</text><path d="M3008.79 1000.5 3008.79 1050.95 3004.21 1050.95 3004.21 1000.5ZM3020.25 1046.36 3006.5 1073.86 2992.75 1046.36Z"/><path d="M3008.79 1257.5 3008.79 1306.74 3004.21 1306.74 3004.21 1257.5ZM3020.25 1302.16 3006.5 1329.66 2992.75 1302.16Z"/></g></svg>